%TF.GenerationSoftware,KiCad,Pcbnew,7.0.7*%
%TF.CreationDate,2023-10-31T12:47:44-05:00*%
%TF.ProjectId,445_project,3434355f-7072-46f6-9a65-63742e6b6963,rev?*%
%TF.SameCoordinates,Original*%
%TF.FileFunction,Soldermask,Top*%
%TF.FilePolarity,Negative*%
%FSLAX46Y46*%
G04 Gerber Fmt 4.6, Leading zero omitted, Abs format (unit mm)*
G04 Created by KiCad (PCBNEW 7.0.7) date 2023-10-31 12:47:44*
%MOMM*%
%LPD*%
G01*
G04 APERTURE LIST*
G04 Aperture macros list*
%AMRoundRect*
0 Rectangle with rounded corners*
0 $1 Rounding radius*
0 $2 $3 $4 $5 $6 $7 $8 $9 X,Y pos of 4 corners*
0 Add a 4 corners polygon primitive as box body*
4,1,4,$2,$3,$4,$5,$6,$7,$8,$9,$2,$3,0*
0 Add four circle primitives for the rounded corners*
1,1,$1+$1,$2,$3*
1,1,$1+$1,$4,$5*
1,1,$1+$1,$6,$7*
1,1,$1+$1,$8,$9*
0 Add four rect primitives between the rounded corners*
20,1,$1+$1,$2,$3,$4,$5,0*
20,1,$1+$1,$4,$5,$6,$7,0*
20,1,$1+$1,$6,$7,$8,$9,0*
20,1,$1+$1,$8,$9,$2,$3,0*%
G04 Aperture macros list end*
%ADD10RoundRect,0.250000X-0.845000X0.620000X-0.845000X-0.620000X0.845000X-0.620000X0.845000X0.620000X0*%
%ADD11O,2.190000X1.740000*%
%ADD12RoundRect,0.250000X0.845000X-0.620000X0.845000X0.620000X-0.845000X0.620000X-0.845000X-0.620000X0*%
%ADD13RoundRect,0.250000X-0.475000X0.337500X-0.475000X-0.337500X0.475000X-0.337500X0.475000X0.337500X0*%
%ADD14R,1.500000X2.000000*%
%ADD15R,3.800000X2.000000*%
%ADD16R,1.600000X1.600000*%
%ADD17O,1.600000X1.600000*%
%ADD18C,1.500000*%
%ADD19RoundRect,0.250000X-0.337500X-0.475000X0.337500X-0.475000X0.337500X0.475000X-0.337500X0.475000X0*%
%ADD20RoundRect,0.250000X0.350000X0.450000X-0.350000X0.450000X-0.350000X-0.450000X0.350000X-0.450000X0*%
%ADD21RoundRect,0.225000X-0.375000X0.225000X-0.375000X-0.225000X0.375000X-0.225000X0.375000X0.225000X0*%
%ADD22RoundRect,0.250000X0.620000X0.845000X-0.620000X0.845000X-0.620000X-0.845000X0.620000X-0.845000X0*%
%ADD23O,1.740000X2.190000*%
%ADD24RoundRect,0.250000X0.600000X-0.600000X0.600000X0.600000X-0.600000X0.600000X-0.600000X-0.600000X0*%
%ADD25C,1.700000*%
G04 APERTURE END LIST*
D10*
%TO.C,J1*%
X64389000Y-107950000D03*
D11*
X64389000Y-110490000D03*
%TD*%
D12*
%TO.C,POT1*%
X90678000Y-114046000D03*
D11*
X90678000Y-111506000D03*
X90678000Y-108966000D03*
%TD*%
D13*
%TO.C,C3*%
X95631000Y-113897500D03*
X95631000Y-115972500D03*
%TD*%
D14*
%TO.C,U2*%
X56120000Y-104623000D03*
X58420000Y-104623000D03*
X60720000Y-104623000D03*
D15*
X58420000Y-98323000D03*
%TD*%
D16*
%TO.C,U1*%
X89535000Y-123444000D03*
D17*
X86995000Y-123444000D03*
X84455000Y-123444000D03*
X81915000Y-123444000D03*
X79375000Y-123444000D03*
X76835000Y-123444000D03*
X74295000Y-123444000D03*
X71755000Y-123444000D03*
X69215000Y-123444000D03*
X66675000Y-123444000D03*
X64135000Y-123444000D03*
X61595000Y-123444000D03*
X59055000Y-123444000D03*
X56515000Y-123444000D03*
X56515000Y-131064000D03*
X59055000Y-131064000D03*
X61595000Y-131064000D03*
X64135000Y-131064000D03*
X66675000Y-131064000D03*
X69215000Y-131064000D03*
X71755000Y-131064000D03*
X74295000Y-131064000D03*
X76835000Y-131064000D03*
X79375000Y-131064000D03*
X81915000Y-131064000D03*
X84455000Y-131064000D03*
X86995000Y-131064000D03*
X89535000Y-131064000D03*
%TD*%
D18*
%TO.C,Y1*%
X70976000Y-118745000D03*
X75856000Y-118745000D03*
%TD*%
D19*
%TO.C,C1*%
X56493500Y-108839000D03*
X58568500Y-108839000D03*
%TD*%
D20*
%TO.C,R1*%
X91170000Y-118491000D03*
X89170000Y-118491000D03*
%TD*%
D10*
%TO.C,RX_2*%
X57892000Y-134366000D03*
D11*
X57892000Y-136906000D03*
X57892000Y-139446000D03*
%TD*%
D10*
%TO.C,RX_3*%
X66020000Y-134366000D03*
D11*
X66020000Y-136906000D03*
X66020000Y-139446000D03*
%TD*%
D21*
%TO.C,D1*%
X96139000Y-125477000D03*
X96139000Y-128777000D03*
%TD*%
D22*
%TO.C,RX_1*%
X60198000Y-117221000D03*
D23*
X57658000Y-117221000D03*
X55118000Y-117221000D03*
%TD*%
D24*
%TO.C,J2*%
X75438000Y-138811000D03*
D25*
X75438000Y-136271000D03*
X77978000Y-138811000D03*
X77978000Y-136271000D03*
X80518000Y-138811000D03*
X80518000Y-136271000D03*
%TD*%
D22*
%TO.C,LCD1*%
X91821000Y-100584000D03*
D23*
X89281000Y-100584000D03*
X86741000Y-100584000D03*
X84201000Y-100584000D03*
X81661000Y-100584000D03*
X79121000Y-100584000D03*
X76581000Y-100584000D03*
X74041000Y-100584000D03*
X71501000Y-100584000D03*
X68961000Y-100584000D03*
X66421000Y-100584000D03*
%TD*%
D19*
%TO.C,C2*%
X72982000Y-112395000D03*
X75057000Y-112395000D03*
%TD*%
M02*
