%TF.GenerationSoftware,KiCad,Pcbnew,7.0.7*%
%TF.CreationDate,2023-10-31T12:47:44-05:00*%
%TF.ProjectId,445_project,3434355f-7072-46f6-9a65-63742e6b6963,rev?*%
%TF.SameCoordinates,Original*%
%TF.FileFunction,Legend,Top*%
%TF.FilePolarity,Positive*%
%FSLAX46Y46*%
G04 Gerber Fmt 4.6, Leading zero omitted, Abs format (unit mm)*
G04 Created by KiCad (PCBNEW 7.0.7) date 2023-10-31 12:47:44*
%MOMM*%
%LPD*%
G01*
G04 APERTURE LIST*
%ADD10C,0.150000*%
%ADD11C,0.120000*%
G04 APERTURE END LIST*
D10*
X87030112Y-139468009D02*
X87172969Y-139515628D01*
X87172969Y-139515628D02*
X87220588Y-139563247D01*
X87220588Y-139563247D02*
X87268207Y-139658485D01*
X87268207Y-139658485D02*
X87268207Y-139801342D01*
X87268207Y-139801342D02*
X87220588Y-139896580D01*
X87220588Y-139896580D02*
X87172969Y-139944200D01*
X87172969Y-139944200D02*
X87077731Y-139991819D01*
X87077731Y-139991819D02*
X86696779Y-139991819D01*
X86696779Y-139991819D02*
X86696779Y-138991819D01*
X86696779Y-138991819D02*
X87030112Y-138991819D01*
X87030112Y-138991819D02*
X87125350Y-139039438D01*
X87125350Y-139039438D02*
X87172969Y-139087057D01*
X87172969Y-139087057D02*
X87220588Y-139182295D01*
X87220588Y-139182295D02*
X87220588Y-139277533D01*
X87220588Y-139277533D02*
X87172969Y-139372771D01*
X87172969Y-139372771D02*
X87125350Y-139420390D01*
X87125350Y-139420390D02*
X87030112Y-139468009D01*
X87030112Y-139468009D02*
X86696779Y-139468009D01*
X88125350Y-139991819D02*
X88125350Y-139468009D01*
X88125350Y-139468009D02*
X88077731Y-139372771D01*
X88077731Y-139372771D02*
X87982493Y-139325152D01*
X87982493Y-139325152D02*
X87792017Y-139325152D01*
X87792017Y-139325152D02*
X87696779Y-139372771D01*
X88125350Y-139944200D02*
X88030112Y-139991819D01*
X88030112Y-139991819D02*
X87792017Y-139991819D01*
X87792017Y-139991819D02*
X87696779Y-139944200D01*
X87696779Y-139944200D02*
X87649160Y-139848961D01*
X87649160Y-139848961D02*
X87649160Y-139753723D01*
X87649160Y-139753723D02*
X87696779Y-139658485D01*
X87696779Y-139658485D02*
X87792017Y-139610866D01*
X87792017Y-139610866D02*
X88030112Y-139610866D01*
X88030112Y-139610866D02*
X88125350Y-139563247D01*
X88553922Y-139944200D02*
X88649160Y-139991819D01*
X88649160Y-139991819D02*
X88839636Y-139991819D01*
X88839636Y-139991819D02*
X88934874Y-139944200D01*
X88934874Y-139944200D02*
X88982493Y-139848961D01*
X88982493Y-139848961D02*
X88982493Y-139801342D01*
X88982493Y-139801342D02*
X88934874Y-139706104D01*
X88934874Y-139706104D02*
X88839636Y-139658485D01*
X88839636Y-139658485D02*
X88696779Y-139658485D01*
X88696779Y-139658485D02*
X88601541Y-139610866D01*
X88601541Y-139610866D02*
X88553922Y-139515628D01*
X88553922Y-139515628D02*
X88553922Y-139468009D01*
X88553922Y-139468009D02*
X88601541Y-139372771D01*
X88601541Y-139372771D02*
X88696779Y-139325152D01*
X88696779Y-139325152D02*
X88839636Y-139325152D01*
X88839636Y-139325152D02*
X88934874Y-139372771D01*
X89792017Y-139944200D02*
X89696779Y-139991819D01*
X89696779Y-139991819D02*
X89506303Y-139991819D01*
X89506303Y-139991819D02*
X89411065Y-139944200D01*
X89411065Y-139944200D02*
X89363446Y-139848961D01*
X89363446Y-139848961D02*
X89363446Y-139468009D01*
X89363446Y-139468009D02*
X89411065Y-139372771D01*
X89411065Y-139372771D02*
X89506303Y-139325152D01*
X89506303Y-139325152D02*
X89696779Y-139325152D01*
X89696779Y-139325152D02*
X89792017Y-139372771D01*
X89792017Y-139372771D02*
X89839636Y-139468009D01*
X89839636Y-139468009D02*
X89839636Y-139563247D01*
X89839636Y-139563247D02*
X89363446Y-139658485D01*
X90982494Y-139944200D02*
X91125351Y-139991819D01*
X91125351Y-139991819D02*
X91363446Y-139991819D01*
X91363446Y-139991819D02*
X91458684Y-139944200D01*
X91458684Y-139944200D02*
X91506303Y-139896580D01*
X91506303Y-139896580D02*
X91553922Y-139801342D01*
X91553922Y-139801342D02*
X91553922Y-139706104D01*
X91553922Y-139706104D02*
X91506303Y-139610866D01*
X91506303Y-139610866D02*
X91458684Y-139563247D01*
X91458684Y-139563247D02*
X91363446Y-139515628D01*
X91363446Y-139515628D02*
X91172970Y-139468009D01*
X91172970Y-139468009D02*
X91077732Y-139420390D01*
X91077732Y-139420390D02*
X91030113Y-139372771D01*
X91030113Y-139372771D02*
X90982494Y-139277533D01*
X90982494Y-139277533D02*
X90982494Y-139182295D01*
X90982494Y-139182295D02*
X91030113Y-139087057D01*
X91030113Y-139087057D02*
X91077732Y-139039438D01*
X91077732Y-139039438D02*
X91172970Y-138991819D01*
X91172970Y-138991819D02*
X91411065Y-138991819D01*
X91411065Y-138991819D02*
X91553922Y-139039438D01*
X91839637Y-139325152D02*
X92220589Y-139325152D01*
X91982494Y-138991819D02*
X91982494Y-139848961D01*
X91982494Y-139848961D02*
X92030113Y-139944200D01*
X92030113Y-139944200D02*
X92125351Y-139991819D01*
X92125351Y-139991819D02*
X92220589Y-139991819D01*
X92982494Y-139991819D02*
X92982494Y-139468009D01*
X92982494Y-139468009D02*
X92934875Y-139372771D01*
X92934875Y-139372771D02*
X92839637Y-139325152D01*
X92839637Y-139325152D02*
X92649161Y-139325152D01*
X92649161Y-139325152D02*
X92553923Y-139372771D01*
X92982494Y-139944200D02*
X92887256Y-139991819D01*
X92887256Y-139991819D02*
X92649161Y-139991819D01*
X92649161Y-139991819D02*
X92553923Y-139944200D01*
X92553923Y-139944200D02*
X92506304Y-139848961D01*
X92506304Y-139848961D02*
X92506304Y-139753723D01*
X92506304Y-139753723D02*
X92553923Y-139658485D01*
X92553923Y-139658485D02*
X92649161Y-139610866D01*
X92649161Y-139610866D02*
X92887256Y-139610866D01*
X92887256Y-139610866D02*
X92982494Y-139563247D01*
X93315828Y-139325152D02*
X93696780Y-139325152D01*
X93458685Y-138991819D02*
X93458685Y-139848961D01*
X93458685Y-139848961D02*
X93506304Y-139944200D01*
X93506304Y-139944200D02*
X93601542Y-139991819D01*
X93601542Y-139991819D02*
X93696780Y-139991819D01*
X94030114Y-139991819D02*
X94030114Y-139325152D01*
X94030114Y-138991819D02*
X93982495Y-139039438D01*
X93982495Y-139039438D02*
X94030114Y-139087057D01*
X94030114Y-139087057D02*
X94077733Y-139039438D01*
X94077733Y-139039438D02*
X94030114Y-138991819D01*
X94030114Y-138991819D02*
X94030114Y-139087057D01*
X94649161Y-139991819D02*
X94553923Y-139944200D01*
X94553923Y-139944200D02*
X94506304Y-139896580D01*
X94506304Y-139896580D02*
X94458685Y-139801342D01*
X94458685Y-139801342D02*
X94458685Y-139515628D01*
X94458685Y-139515628D02*
X94506304Y-139420390D01*
X94506304Y-139420390D02*
X94553923Y-139372771D01*
X94553923Y-139372771D02*
X94649161Y-139325152D01*
X94649161Y-139325152D02*
X94792018Y-139325152D01*
X94792018Y-139325152D02*
X94887256Y-139372771D01*
X94887256Y-139372771D02*
X94934875Y-139420390D01*
X94934875Y-139420390D02*
X94982494Y-139515628D01*
X94982494Y-139515628D02*
X94982494Y-139801342D01*
X94982494Y-139801342D02*
X94934875Y-139896580D01*
X94934875Y-139896580D02*
X94887256Y-139944200D01*
X94887256Y-139944200D02*
X94792018Y-139991819D01*
X94792018Y-139991819D02*
X94649161Y-139991819D01*
X95411066Y-139325152D02*
X95411066Y-139991819D01*
X95411066Y-139420390D02*
X95458685Y-139372771D01*
X95458685Y-139372771D02*
X95553923Y-139325152D01*
X95553923Y-139325152D02*
X95696780Y-139325152D01*
X95696780Y-139325152D02*
X95792018Y-139372771D01*
X95792018Y-139372771D02*
X95839637Y-139468009D01*
X95839637Y-139468009D02*
X95839637Y-139991819D01*
X96934876Y-138991819D02*
X97268209Y-139991819D01*
X97268209Y-139991819D02*
X97601542Y-138991819D01*
X98458685Y-139991819D02*
X97887257Y-139991819D01*
X98172971Y-139991819D02*
X98172971Y-138991819D01*
X98172971Y-138991819D02*
X98077733Y-139134676D01*
X98077733Y-139134676D02*
X97982495Y-139229914D01*
X97982495Y-139229914D02*
X97887257Y-139277533D01*
X86553922Y-140601819D02*
X87125350Y-140601819D01*
X86839636Y-141601819D02*
X86839636Y-140601819D01*
X87411065Y-140697057D02*
X87458684Y-140649438D01*
X87458684Y-140649438D02*
X87553922Y-140601819D01*
X87553922Y-140601819D02*
X87792017Y-140601819D01*
X87792017Y-140601819D02*
X87887255Y-140649438D01*
X87887255Y-140649438D02*
X87934874Y-140697057D01*
X87934874Y-140697057D02*
X87982493Y-140792295D01*
X87982493Y-140792295D02*
X87982493Y-140887533D01*
X87982493Y-140887533D02*
X87934874Y-141030390D01*
X87934874Y-141030390D02*
X87363446Y-141601819D01*
X87363446Y-141601819D02*
X87982493Y-141601819D01*
X88553922Y-141030390D02*
X88458684Y-140982771D01*
X88458684Y-140982771D02*
X88411065Y-140935152D01*
X88411065Y-140935152D02*
X88363446Y-140839914D01*
X88363446Y-140839914D02*
X88363446Y-140792295D01*
X88363446Y-140792295D02*
X88411065Y-140697057D01*
X88411065Y-140697057D02*
X88458684Y-140649438D01*
X88458684Y-140649438D02*
X88553922Y-140601819D01*
X88553922Y-140601819D02*
X88744398Y-140601819D01*
X88744398Y-140601819D02*
X88839636Y-140649438D01*
X88839636Y-140649438D02*
X88887255Y-140697057D01*
X88887255Y-140697057D02*
X88934874Y-140792295D01*
X88934874Y-140792295D02*
X88934874Y-140839914D01*
X88934874Y-140839914D02*
X88887255Y-140935152D01*
X88887255Y-140935152D02*
X88839636Y-140982771D01*
X88839636Y-140982771D02*
X88744398Y-141030390D01*
X88744398Y-141030390D02*
X88553922Y-141030390D01*
X88553922Y-141030390D02*
X88458684Y-141078009D01*
X88458684Y-141078009D02*
X88411065Y-141125628D01*
X88411065Y-141125628D02*
X88363446Y-141220866D01*
X88363446Y-141220866D02*
X88363446Y-141411342D01*
X88363446Y-141411342D02*
X88411065Y-141506580D01*
X88411065Y-141506580D02*
X88458684Y-141554200D01*
X88458684Y-141554200D02*
X88553922Y-141601819D01*
X88553922Y-141601819D02*
X88744398Y-141601819D01*
X88744398Y-141601819D02*
X88839636Y-141554200D01*
X88839636Y-141554200D02*
X88887255Y-141506580D01*
X88887255Y-141506580D02*
X88934874Y-141411342D01*
X88934874Y-141411342D02*
X88934874Y-141220866D01*
X88934874Y-141220866D02*
X88887255Y-141125628D01*
X88887255Y-141125628D02*
X88839636Y-141078009D01*
X88839636Y-141078009D02*
X88744398Y-141030390D01*
X59763819Y-110243808D02*
X60763819Y-109910475D01*
X60763819Y-109910475D02*
X59763819Y-109577142D01*
X60763819Y-109243808D02*
X60097152Y-109243808D01*
X59763819Y-109243808D02*
X59811438Y-109291427D01*
X59811438Y-109291427D02*
X59859057Y-109243808D01*
X59859057Y-109243808D02*
X59811438Y-109196189D01*
X59811438Y-109196189D02*
X59763819Y-109243808D01*
X59763819Y-109243808D02*
X59859057Y-109243808D01*
X60097152Y-108767618D02*
X60763819Y-108767618D01*
X60192390Y-108767618D02*
X60144771Y-108719999D01*
X60144771Y-108719999D02*
X60097152Y-108624761D01*
X60097152Y-108624761D02*
X60097152Y-108481904D01*
X60097152Y-108481904D02*
X60144771Y-108386666D01*
X60144771Y-108386666D02*
X60240009Y-108339047D01*
X60240009Y-108339047D02*
X60763819Y-108339047D01*
X64315133Y-107569048D02*
X64315133Y-108330953D01*
X63934180Y-107950000D02*
X64696085Y-107950000D01*
X64315133Y-107569048D02*
X64315133Y-108330953D01*
X95212819Y-112672666D02*
X94212819Y-112672666D01*
X94212819Y-112672666D02*
X94212819Y-112291714D01*
X94212819Y-112291714D02*
X94260438Y-112196476D01*
X94260438Y-112196476D02*
X94308057Y-112148857D01*
X94308057Y-112148857D02*
X94403295Y-112101238D01*
X94403295Y-112101238D02*
X94546152Y-112101238D01*
X94546152Y-112101238D02*
X94641390Y-112148857D01*
X94641390Y-112148857D02*
X94689009Y-112196476D01*
X94689009Y-112196476D02*
X94736628Y-112291714D01*
X94736628Y-112291714D02*
X94736628Y-112672666D01*
X94212819Y-111482190D02*
X94212819Y-111291714D01*
X94212819Y-111291714D02*
X94260438Y-111196476D01*
X94260438Y-111196476D02*
X94355676Y-111101238D01*
X94355676Y-111101238D02*
X94546152Y-111053619D01*
X94546152Y-111053619D02*
X94879485Y-111053619D01*
X94879485Y-111053619D02*
X95069961Y-111101238D01*
X95069961Y-111101238D02*
X95165200Y-111196476D01*
X95165200Y-111196476D02*
X95212819Y-111291714D01*
X95212819Y-111291714D02*
X95212819Y-111482190D01*
X95212819Y-111482190D02*
X95165200Y-111577428D01*
X95165200Y-111577428D02*
X95069961Y-111672666D01*
X95069961Y-111672666D02*
X94879485Y-111720285D01*
X94879485Y-111720285D02*
X94546152Y-111720285D01*
X94546152Y-111720285D02*
X94355676Y-111672666D01*
X94355676Y-111672666D02*
X94260438Y-111577428D01*
X94260438Y-111577428D02*
X94212819Y-111482190D01*
X94212819Y-110767904D02*
X94212819Y-110196476D01*
X95212819Y-110482190D02*
X94212819Y-110482190D01*
X97670580Y-115101666D02*
X97718200Y-115149285D01*
X97718200Y-115149285D02*
X97765819Y-115292142D01*
X97765819Y-115292142D02*
X97765819Y-115387380D01*
X97765819Y-115387380D02*
X97718200Y-115530237D01*
X97718200Y-115530237D02*
X97622961Y-115625475D01*
X97622961Y-115625475D02*
X97527723Y-115673094D01*
X97527723Y-115673094D02*
X97337247Y-115720713D01*
X97337247Y-115720713D02*
X97194390Y-115720713D01*
X97194390Y-115720713D02*
X97003914Y-115673094D01*
X97003914Y-115673094D02*
X96908676Y-115625475D01*
X96908676Y-115625475D02*
X96813438Y-115530237D01*
X96813438Y-115530237D02*
X96765819Y-115387380D01*
X96765819Y-115387380D02*
X96765819Y-115292142D01*
X96765819Y-115292142D02*
X96813438Y-115149285D01*
X96813438Y-115149285D02*
X96861057Y-115101666D01*
X96765819Y-114768332D02*
X96765819Y-114149285D01*
X96765819Y-114149285D02*
X97146771Y-114482618D01*
X97146771Y-114482618D02*
X97146771Y-114339761D01*
X97146771Y-114339761D02*
X97194390Y-114244523D01*
X97194390Y-114244523D02*
X97242009Y-114196904D01*
X97242009Y-114196904D02*
X97337247Y-114149285D01*
X97337247Y-114149285D02*
X97575342Y-114149285D01*
X97575342Y-114149285D02*
X97670580Y-114196904D01*
X97670580Y-114196904D02*
X97718200Y-114244523D01*
X97718200Y-114244523D02*
X97765819Y-114339761D01*
X97765819Y-114339761D02*
X97765819Y-114625475D01*
X97765819Y-114625475D02*
X97718200Y-114720713D01*
X97718200Y-114720713D02*
X97670580Y-114768332D01*
X62374819Y-102234904D02*
X63184342Y-102234904D01*
X63184342Y-102234904D02*
X63279580Y-102187285D01*
X63279580Y-102187285D02*
X63327200Y-102139666D01*
X63327200Y-102139666D02*
X63374819Y-102044428D01*
X63374819Y-102044428D02*
X63374819Y-101853952D01*
X63374819Y-101853952D02*
X63327200Y-101758714D01*
X63327200Y-101758714D02*
X63279580Y-101711095D01*
X63279580Y-101711095D02*
X63184342Y-101663476D01*
X63184342Y-101663476D02*
X62374819Y-101663476D01*
X62470057Y-101234904D02*
X62422438Y-101187285D01*
X62422438Y-101187285D02*
X62374819Y-101092047D01*
X62374819Y-101092047D02*
X62374819Y-100853952D01*
X62374819Y-100853952D02*
X62422438Y-100758714D01*
X62422438Y-100758714D02*
X62470057Y-100711095D01*
X62470057Y-100711095D02*
X62565295Y-100663476D01*
X62565295Y-100663476D02*
X62660533Y-100663476D01*
X62660533Y-100663476D02*
X62803390Y-100711095D01*
X62803390Y-100711095D02*
X63374819Y-101282523D01*
X63374819Y-101282523D02*
X63374819Y-100663476D01*
X54354104Y-132920666D02*
X54354104Y-132444476D01*
X54639819Y-133015904D02*
X53639819Y-132682571D01*
X53639819Y-132682571D02*
X54639819Y-132349238D01*
X53639819Y-132158761D02*
X53639819Y-131587333D01*
X54639819Y-131873047D02*
X53639819Y-131873047D01*
X54639819Y-131253999D02*
X53973152Y-131253999D01*
X54068390Y-131253999D02*
X54020771Y-131206380D01*
X54020771Y-131206380D02*
X53973152Y-131111142D01*
X53973152Y-131111142D02*
X53973152Y-130968285D01*
X53973152Y-130968285D02*
X54020771Y-130873047D01*
X54020771Y-130873047D02*
X54116009Y-130825428D01*
X54116009Y-130825428D02*
X54639819Y-130825428D01*
X54116009Y-130825428D02*
X54020771Y-130777809D01*
X54020771Y-130777809D02*
X53973152Y-130682571D01*
X53973152Y-130682571D02*
X53973152Y-130539714D01*
X53973152Y-130539714D02*
X54020771Y-130444475D01*
X54020771Y-130444475D02*
X54116009Y-130396856D01*
X54116009Y-130396856D02*
X54639819Y-130396856D01*
X54592200Y-129539714D02*
X54639819Y-129634952D01*
X54639819Y-129634952D02*
X54639819Y-129825428D01*
X54639819Y-129825428D02*
X54592200Y-129920666D01*
X54592200Y-129920666D02*
X54496961Y-129968285D01*
X54496961Y-129968285D02*
X54116009Y-129968285D01*
X54116009Y-129968285D02*
X54020771Y-129920666D01*
X54020771Y-129920666D02*
X53973152Y-129825428D01*
X53973152Y-129825428D02*
X53973152Y-129634952D01*
X53973152Y-129634952D02*
X54020771Y-129539714D01*
X54020771Y-129539714D02*
X54116009Y-129492095D01*
X54116009Y-129492095D02*
X54211247Y-129492095D01*
X54211247Y-129492095D02*
X54306485Y-129968285D01*
X53973152Y-128634952D02*
X54782676Y-128634952D01*
X54782676Y-128634952D02*
X54877914Y-128682571D01*
X54877914Y-128682571D02*
X54925533Y-128730190D01*
X54925533Y-128730190D02*
X54973152Y-128825428D01*
X54973152Y-128825428D02*
X54973152Y-128968285D01*
X54973152Y-128968285D02*
X54925533Y-129063523D01*
X54592200Y-128634952D02*
X54639819Y-128730190D01*
X54639819Y-128730190D02*
X54639819Y-128920666D01*
X54639819Y-128920666D02*
X54592200Y-129015904D01*
X54592200Y-129015904D02*
X54544580Y-129063523D01*
X54544580Y-129063523D02*
X54449342Y-129111142D01*
X54449342Y-129111142D02*
X54163628Y-129111142D01*
X54163628Y-129111142D02*
X54068390Y-129063523D01*
X54068390Y-129063523D02*
X54020771Y-129015904D01*
X54020771Y-129015904D02*
X53973152Y-128920666D01*
X53973152Y-128920666D02*
X53973152Y-128730190D01*
X53973152Y-128730190D02*
X54020771Y-128634952D01*
X54639819Y-127730190D02*
X54116009Y-127730190D01*
X54116009Y-127730190D02*
X54020771Y-127777809D01*
X54020771Y-127777809D02*
X53973152Y-127873047D01*
X53973152Y-127873047D02*
X53973152Y-128063523D01*
X53973152Y-128063523D02*
X54020771Y-128158761D01*
X54592200Y-127730190D02*
X54639819Y-127825428D01*
X54639819Y-127825428D02*
X54639819Y-128063523D01*
X54639819Y-128063523D02*
X54592200Y-128158761D01*
X54592200Y-128158761D02*
X54496961Y-128206380D01*
X54496961Y-128206380D02*
X54401723Y-128206380D01*
X54401723Y-128206380D02*
X54306485Y-128158761D01*
X54306485Y-128158761D02*
X54258866Y-128063523D01*
X54258866Y-128063523D02*
X54258866Y-127825428D01*
X54258866Y-127825428D02*
X54211247Y-127730190D01*
X53639819Y-127349237D02*
X53639819Y-126730190D01*
X53639819Y-126730190D02*
X54020771Y-127063523D01*
X54020771Y-127063523D02*
X54020771Y-126920666D01*
X54020771Y-126920666D02*
X54068390Y-126825428D01*
X54068390Y-126825428D02*
X54116009Y-126777809D01*
X54116009Y-126777809D02*
X54211247Y-126730190D01*
X54211247Y-126730190D02*
X54449342Y-126730190D01*
X54449342Y-126730190D02*
X54544580Y-126777809D01*
X54544580Y-126777809D02*
X54592200Y-126825428D01*
X54592200Y-126825428D02*
X54639819Y-126920666D01*
X54639819Y-126920666D02*
X54639819Y-127206380D01*
X54639819Y-127206380D02*
X54592200Y-127301618D01*
X54592200Y-127301618D02*
X54544580Y-127349237D01*
X53735057Y-126349237D02*
X53687438Y-126301618D01*
X53687438Y-126301618D02*
X53639819Y-126206380D01*
X53639819Y-126206380D02*
X53639819Y-125968285D01*
X53639819Y-125968285D02*
X53687438Y-125873047D01*
X53687438Y-125873047D02*
X53735057Y-125825428D01*
X53735057Y-125825428D02*
X53830295Y-125777809D01*
X53830295Y-125777809D02*
X53925533Y-125777809D01*
X53925533Y-125777809D02*
X54068390Y-125825428D01*
X54068390Y-125825428D02*
X54639819Y-126396856D01*
X54639819Y-126396856D02*
X54639819Y-125777809D01*
X54068390Y-125206380D02*
X54020771Y-125301618D01*
X54020771Y-125301618D02*
X53973152Y-125349237D01*
X53973152Y-125349237D02*
X53877914Y-125396856D01*
X53877914Y-125396856D02*
X53830295Y-125396856D01*
X53830295Y-125396856D02*
X53735057Y-125349237D01*
X53735057Y-125349237D02*
X53687438Y-125301618D01*
X53687438Y-125301618D02*
X53639819Y-125206380D01*
X53639819Y-125206380D02*
X53639819Y-125015904D01*
X53639819Y-125015904D02*
X53687438Y-124920666D01*
X53687438Y-124920666D02*
X53735057Y-124873047D01*
X53735057Y-124873047D02*
X53830295Y-124825428D01*
X53830295Y-124825428D02*
X53877914Y-124825428D01*
X53877914Y-124825428D02*
X53973152Y-124873047D01*
X53973152Y-124873047D02*
X54020771Y-124920666D01*
X54020771Y-124920666D02*
X54068390Y-125015904D01*
X54068390Y-125015904D02*
X54068390Y-125206380D01*
X54068390Y-125206380D02*
X54116009Y-125301618D01*
X54116009Y-125301618D02*
X54163628Y-125349237D01*
X54163628Y-125349237D02*
X54258866Y-125396856D01*
X54258866Y-125396856D02*
X54449342Y-125396856D01*
X54449342Y-125396856D02*
X54544580Y-125349237D01*
X54544580Y-125349237D02*
X54592200Y-125301618D01*
X54592200Y-125301618D02*
X54639819Y-125206380D01*
X54639819Y-125206380D02*
X54639819Y-125015904D01*
X54639819Y-125015904D02*
X54592200Y-124920666D01*
X54592200Y-124920666D02*
X54544580Y-124873047D01*
X54544580Y-124873047D02*
X54449342Y-124825428D01*
X54449342Y-124825428D02*
X54258866Y-124825428D01*
X54258866Y-124825428D02*
X54163628Y-124873047D01*
X54163628Y-124873047D02*
X54116009Y-124920666D01*
X54116009Y-124920666D02*
X54068390Y-125015904D01*
X54639819Y-124396856D02*
X53639819Y-124396856D01*
X53639819Y-124396856D02*
X53639819Y-124015904D01*
X53639819Y-124015904D02*
X53687438Y-123920666D01*
X53687438Y-123920666D02*
X53735057Y-123873047D01*
X53735057Y-123873047D02*
X53830295Y-123825428D01*
X53830295Y-123825428D02*
X53973152Y-123825428D01*
X53973152Y-123825428D02*
X54068390Y-123873047D01*
X54068390Y-123873047D02*
X54116009Y-123920666D01*
X54116009Y-123920666D02*
X54163628Y-124015904D01*
X54163628Y-124015904D02*
X54163628Y-124396856D01*
X54258866Y-123396856D02*
X54258866Y-122634952D01*
X54639819Y-122158761D02*
X53639819Y-122158761D01*
X53639819Y-122158761D02*
X53639819Y-121777809D01*
X53639819Y-121777809D02*
X53687438Y-121682571D01*
X53687438Y-121682571D02*
X53735057Y-121634952D01*
X53735057Y-121634952D02*
X53830295Y-121587333D01*
X53830295Y-121587333D02*
X53973152Y-121587333D01*
X53973152Y-121587333D02*
X54068390Y-121634952D01*
X54068390Y-121634952D02*
X54116009Y-121682571D01*
X54116009Y-121682571D02*
X54163628Y-121777809D01*
X54163628Y-121777809D02*
X54163628Y-122158761D01*
X71630284Y-115579580D02*
X71582665Y-115627200D01*
X71582665Y-115627200D02*
X71439808Y-115674819D01*
X71439808Y-115674819D02*
X71344570Y-115674819D01*
X71344570Y-115674819D02*
X71201713Y-115627200D01*
X71201713Y-115627200D02*
X71106475Y-115531961D01*
X71106475Y-115531961D02*
X71058856Y-115436723D01*
X71058856Y-115436723D02*
X71011237Y-115246247D01*
X71011237Y-115246247D02*
X71011237Y-115103390D01*
X71011237Y-115103390D02*
X71058856Y-114912914D01*
X71058856Y-114912914D02*
X71106475Y-114817676D01*
X71106475Y-114817676D02*
X71201713Y-114722438D01*
X71201713Y-114722438D02*
X71344570Y-114674819D01*
X71344570Y-114674819D02*
X71439808Y-114674819D01*
X71439808Y-114674819D02*
X71582665Y-114722438D01*
X71582665Y-114722438D02*
X71630284Y-114770057D01*
X72058856Y-115674819D02*
X72058856Y-115008152D01*
X72058856Y-115198628D02*
X72106475Y-115103390D01*
X72106475Y-115103390D02*
X72154094Y-115055771D01*
X72154094Y-115055771D02*
X72249332Y-115008152D01*
X72249332Y-115008152D02*
X72344570Y-115008152D01*
X72582666Y-115008152D02*
X72820761Y-115674819D01*
X73058856Y-115008152D02*
X72820761Y-115674819D01*
X72820761Y-115674819D02*
X72725523Y-115912914D01*
X72725523Y-115912914D02*
X72677904Y-115960533D01*
X72677904Y-115960533D02*
X72582666Y-116008152D01*
X73392190Y-115627200D02*
X73487428Y-115674819D01*
X73487428Y-115674819D02*
X73677904Y-115674819D01*
X73677904Y-115674819D02*
X73773142Y-115627200D01*
X73773142Y-115627200D02*
X73820761Y-115531961D01*
X73820761Y-115531961D02*
X73820761Y-115484342D01*
X73820761Y-115484342D02*
X73773142Y-115389104D01*
X73773142Y-115389104D02*
X73677904Y-115341485D01*
X73677904Y-115341485D02*
X73535047Y-115341485D01*
X73535047Y-115341485D02*
X73439809Y-115293866D01*
X73439809Y-115293866D02*
X73392190Y-115198628D01*
X73392190Y-115198628D02*
X73392190Y-115151009D01*
X73392190Y-115151009D02*
X73439809Y-115055771D01*
X73439809Y-115055771D02*
X73535047Y-115008152D01*
X73535047Y-115008152D02*
X73677904Y-115008152D01*
X73677904Y-115008152D02*
X73773142Y-115055771D01*
X74106476Y-115008152D02*
X74487428Y-115008152D01*
X74249333Y-114674819D02*
X74249333Y-115531961D01*
X74249333Y-115531961D02*
X74296952Y-115627200D01*
X74296952Y-115627200D02*
X74392190Y-115674819D01*
X74392190Y-115674819D02*
X74487428Y-115674819D01*
X75249333Y-115674819D02*
X75249333Y-115151009D01*
X75249333Y-115151009D02*
X75201714Y-115055771D01*
X75201714Y-115055771D02*
X75106476Y-115008152D01*
X75106476Y-115008152D02*
X74916000Y-115008152D01*
X74916000Y-115008152D02*
X74820762Y-115055771D01*
X75249333Y-115627200D02*
X75154095Y-115674819D01*
X75154095Y-115674819D02*
X74916000Y-115674819D01*
X74916000Y-115674819D02*
X74820762Y-115627200D01*
X74820762Y-115627200D02*
X74773143Y-115531961D01*
X74773143Y-115531961D02*
X74773143Y-115436723D01*
X74773143Y-115436723D02*
X74820762Y-115341485D01*
X74820762Y-115341485D02*
X74916000Y-115293866D01*
X74916000Y-115293866D02*
X75154095Y-115293866D01*
X75154095Y-115293866D02*
X75249333Y-115246247D01*
X75868381Y-115674819D02*
X75773143Y-115627200D01*
X75773143Y-115627200D02*
X75725524Y-115531961D01*
X75725524Y-115531961D02*
X75725524Y-114674819D01*
X56935761Y-110973819D02*
X56364333Y-110973819D01*
X56650047Y-110973819D02*
X56650047Y-109973819D01*
X56650047Y-109973819D02*
X56554809Y-110116676D01*
X56554809Y-110116676D02*
X56459571Y-110211914D01*
X56459571Y-110211914D02*
X56364333Y-110259533D01*
X57792904Y-110307152D02*
X57792904Y-110973819D01*
X57364333Y-110307152D02*
X57364333Y-110830961D01*
X57364333Y-110830961D02*
X57411952Y-110926200D01*
X57411952Y-110926200D02*
X57507190Y-110973819D01*
X57507190Y-110973819D02*
X57650047Y-110973819D01*
X57650047Y-110973819D02*
X57745285Y-110926200D01*
X57745285Y-110926200D02*
X57792904Y-110878580D01*
X58602428Y-110450009D02*
X58269095Y-110450009D01*
X58269095Y-110973819D02*
X58269095Y-109973819D01*
X58269095Y-109973819D02*
X58745285Y-109973819D01*
X90003333Y-120595819D02*
X89670000Y-120119628D01*
X89431905Y-120595819D02*
X89431905Y-119595819D01*
X89431905Y-119595819D02*
X89812857Y-119595819D01*
X89812857Y-119595819D02*
X89908095Y-119643438D01*
X89908095Y-119643438D02*
X89955714Y-119691057D01*
X89955714Y-119691057D02*
X90003333Y-119786295D01*
X90003333Y-119786295D02*
X90003333Y-119929152D01*
X90003333Y-119929152D02*
X89955714Y-120024390D01*
X89955714Y-120024390D02*
X89908095Y-120072009D01*
X89908095Y-120072009D02*
X89812857Y-120119628D01*
X89812857Y-120119628D02*
X89431905Y-120119628D01*
X90955714Y-120595819D02*
X90384286Y-120595819D01*
X90670000Y-120595819D02*
X90670000Y-119595819D01*
X90670000Y-119595819D02*
X90574762Y-119738676D01*
X90574762Y-119738676D02*
X90479524Y-119833914D01*
X90479524Y-119833914D02*
X90384286Y-119881533D01*
X54266819Y-137072666D02*
X53790628Y-137405999D01*
X54266819Y-137644094D02*
X53266819Y-137644094D01*
X53266819Y-137644094D02*
X53266819Y-137263142D01*
X53266819Y-137263142D02*
X53314438Y-137167904D01*
X53314438Y-137167904D02*
X53362057Y-137120285D01*
X53362057Y-137120285D02*
X53457295Y-137072666D01*
X53457295Y-137072666D02*
X53600152Y-137072666D01*
X53600152Y-137072666D02*
X53695390Y-137120285D01*
X53695390Y-137120285D02*
X53743009Y-137167904D01*
X53743009Y-137167904D02*
X53790628Y-137263142D01*
X53790628Y-137263142D02*
X53790628Y-137644094D01*
X53266819Y-136739332D02*
X54266819Y-136072666D01*
X53266819Y-136072666D02*
X54266819Y-136739332D01*
X62394819Y-137072666D02*
X61918628Y-137405999D01*
X62394819Y-137644094D02*
X61394819Y-137644094D01*
X61394819Y-137644094D02*
X61394819Y-137263142D01*
X61394819Y-137263142D02*
X61442438Y-137167904D01*
X61442438Y-137167904D02*
X61490057Y-137120285D01*
X61490057Y-137120285D02*
X61585295Y-137072666D01*
X61585295Y-137072666D02*
X61728152Y-137072666D01*
X61728152Y-137072666D02*
X61823390Y-137120285D01*
X61823390Y-137120285D02*
X61871009Y-137167904D01*
X61871009Y-137167904D02*
X61918628Y-137263142D01*
X61918628Y-137263142D02*
X61918628Y-137644094D01*
X61394819Y-136739332D02*
X62394819Y-136072666D01*
X61394819Y-136072666D02*
X62394819Y-136739332D01*
X94493819Y-130365094D02*
X93493819Y-130365094D01*
X93493819Y-130365094D02*
X94208104Y-130031761D01*
X94208104Y-130031761D02*
X93493819Y-129698428D01*
X93493819Y-129698428D02*
X94493819Y-129698428D01*
X93970009Y-128888904D02*
X94017628Y-128746047D01*
X94017628Y-128746047D02*
X94065247Y-128698428D01*
X94065247Y-128698428D02*
X94160485Y-128650809D01*
X94160485Y-128650809D02*
X94303342Y-128650809D01*
X94303342Y-128650809D02*
X94398580Y-128698428D01*
X94398580Y-128698428D02*
X94446200Y-128746047D01*
X94446200Y-128746047D02*
X94493819Y-128841285D01*
X94493819Y-128841285D02*
X94493819Y-129222237D01*
X94493819Y-129222237D02*
X93493819Y-129222237D01*
X93493819Y-129222237D02*
X93493819Y-128888904D01*
X93493819Y-128888904D02*
X93541438Y-128793666D01*
X93541438Y-128793666D02*
X93589057Y-128746047D01*
X93589057Y-128746047D02*
X93684295Y-128698428D01*
X93684295Y-128698428D02*
X93779533Y-128698428D01*
X93779533Y-128698428D02*
X93874771Y-128746047D01*
X93874771Y-128746047D02*
X93922390Y-128793666D01*
X93922390Y-128793666D02*
X93970009Y-128888904D01*
X93970009Y-128888904D02*
X93970009Y-129222237D01*
X94493819Y-127650809D02*
X94017628Y-127984142D01*
X94493819Y-128222237D02*
X93493819Y-128222237D01*
X93493819Y-128222237D02*
X93493819Y-127841285D01*
X93493819Y-127841285D02*
X93541438Y-127746047D01*
X93541438Y-127746047D02*
X93589057Y-127698428D01*
X93589057Y-127698428D02*
X93684295Y-127650809D01*
X93684295Y-127650809D02*
X93827152Y-127650809D01*
X93827152Y-127650809D02*
X93922390Y-127698428D01*
X93922390Y-127698428D02*
X93970009Y-127746047D01*
X93970009Y-127746047D02*
X94017628Y-127841285D01*
X94017628Y-127841285D02*
X94017628Y-128222237D01*
X93493819Y-127031761D02*
X93493819Y-126936523D01*
X93493819Y-126936523D02*
X93541438Y-126841285D01*
X93541438Y-126841285D02*
X93589057Y-126793666D01*
X93589057Y-126793666D02*
X93684295Y-126746047D01*
X93684295Y-126746047D02*
X93874771Y-126698428D01*
X93874771Y-126698428D02*
X94112866Y-126698428D01*
X94112866Y-126698428D02*
X94303342Y-126746047D01*
X94303342Y-126746047D02*
X94398580Y-126793666D01*
X94398580Y-126793666D02*
X94446200Y-126841285D01*
X94446200Y-126841285D02*
X94493819Y-126936523D01*
X94493819Y-126936523D02*
X94493819Y-127031761D01*
X94493819Y-127031761D02*
X94446200Y-127126999D01*
X94446200Y-127126999D02*
X94398580Y-127174618D01*
X94398580Y-127174618D02*
X94303342Y-127222237D01*
X94303342Y-127222237D02*
X94112866Y-127269856D01*
X94112866Y-127269856D02*
X93874771Y-127269856D01*
X93874771Y-127269856D02*
X93684295Y-127222237D01*
X93684295Y-127222237D02*
X93589057Y-127174618D01*
X93589057Y-127174618D02*
X93541438Y-127126999D01*
X93541438Y-127126999D02*
X93493819Y-127031761D01*
X93493819Y-125793666D02*
X93493819Y-126269856D01*
X93493819Y-126269856D02*
X93970009Y-126317475D01*
X93970009Y-126317475D02*
X93922390Y-126269856D01*
X93922390Y-126269856D02*
X93874771Y-126174618D01*
X93874771Y-126174618D02*
X93874771Y-125936523D01*
X93874771Y-125936523D02*
X93922390Y-125841285D01*
X93922390Y-125841285D02*
X93970009Y-125793666D01*
X93970009Y-125793666D02*
X94065247Y-125746047D01*
X94065247Y-125746047D02*
X94303342Y-125746047D01*
X94303342Y-125746047D02*
X94398580Y-125793666D01*
X94398580Y-125793666D02*
X94446200Y-125841285D01*
X94446200Y-125841285D02*
X94493819Y-125936523D01*
X94493819Y-125936523D02*
X94493819Y-126174618D01*
X94493819Y-126174618D02*
X94446200Y-126269856D01*
X94446200Y-126269856D02*
X94398580Y-126317475D01*
X93589057Y-125365094D02*
X93541438Y-125317475D01*
X93541438Y-125317475D02*
X93493819Y-125222237D01*
X93493819Y-125222237D02*
X93493819Y-124984142D01*
X93493819Y-124984142D02*
X93541438Y-124888904D01*
X93541438Y-124888904D02*
X93589057Y-124841285D01*
X93589057Y-124841285D02*
X93684295Y-124793666D01*
X93684295Y-124793666D02*
X93779533Y-124793666D01*
X93779533Y-124793666D02*
X93922390Y-124841285D01*
X93922390Y-124841285D02*
X94493819Y-125412713D01*
X94493819Y-125412713D02*
X94493819Y-124793666D01*
X93493819Y-124174618D02*
X93493819Y-124079380D01*
X93493819Y-124079380D02*
X93541438Y-123984142D01*
X93541438Y-123984142D02*
X93589057Y-123936523D01*
X93589057Y-123936523D02*
X93684295Y-123888904D01*
X93684295Y-123888904D02*
X93874771Y-123841285D01*
X93874771Y-123841285D02*
X94112866Y-123841285D01*
X94112866Y-123841285D02*
X94303342Y-123888904D01*
X94303342Y-123888904D02*
X94398580Y-123936523D01*
X94398580Y-123936523D02*
X94446200Y-123984142D01*
X94446200Y-123984142D02*
X94493819Y-124079380D01*
X94493819Y-124079380D02*
X94493819Y-124174618D01*
X94493819Y-124174618D02*
X94446200Y-124269856D01*
X94446200Y-124269856D02*
X94398580Y-124317475D01*
X94398580Y-124317475D02*
X94303342Y-124365094D01*
X94303342Y-124365094D02*
X94112866Y-124412713D01*
X94112866Y-124412713D02*
X93874771Y-124412713D01*
X93874771Y-124412713D02*
X93684295Y-124365094D01*
X93684295Y-124365094D02*
X93589057Y-124317475D01*
X93589057Y-124317475D02*
X93541438Y-124269856D01*
X93541438Y-124269856D02*
X93493819Y-124174618D01*
X96065133Y-126746048D02*
X96065133Y-127507953D01*
X95684180Y-127127000D02*
X96446085Y-127127000D01*
X96065133Y-126746048D02*
X96065133Y-127507953D01*
X57485381Y-113595819D02*
X57211571Y-113119628D01*
X56913952Y-113595819D02*
X57038952Y-112595819D01*
X57038952Y-112595819D02*
X57419905Y-112595819D01*
X57419905Y-112595819D02*
X57509190Y-112643438D01*
X57509190Y-112643438D02*
X57550857Y-112691057D01*
X57550857Y-112691057D02*
X57586571Y-112786295D01*
X57586571Y-112786295D02*
X57568714Y-112929152D01*
X57568714Y-112929152D02*
X57509190Y-113024390D01*
X57509190Y-113024390D02*
X57455619Y-113072009D01*
X57455619Y-113072009D02*
X57354429Y-113119628D01*
X57354429Y-113119628D02*
X56973476Y-113119628D01*
X57943714Y-112595819D02*
X58485381Y-113595819D01*
X58610381Y-112595819D02*
X57818714Y-113595819D01*
X76620810Y-143710819D02*
X76620810Y-142710819D01*
X77049381Y-143663200D02*
X77192238Y-143710819D01*
X77192238Y-143710819D02*
X77430333Y-143710819D01*
X77430333Y-143710819D02*
X77525571Y-143663200D01*
X77525571Y-143663200D02*
X77573190Y-143615580D01*
X77573190Y-143615580D02*
X77620809Y-143520342D01*
X77620809Y-143520342D02*
X77620809Y-143425104D01*
X77620809Y-143425104D02*
X77573190Y-143329866D01*
X77573190Y-143329866D02*
X77525571Y-143282247D01*
X77525571Y-143282247D02*
X77430333Y-143234628D01*
X77430333Y-143234628D02*
X77239857Y-143187009D01*
X77239857Y-143187009D02*
X77144619Y-143139390D01*
X77144619Y-143139390D02*
X77097000Y-143091771D01*
X77097000Y-143091771D02*
X77049381Y-142996533D01*
X77049381Y-142996533D02*
X77049381Y-142901295D01*
X77049381Y-142901295D02*
X77097000Y-142806057D01*
X77097000Y-142806057D02*
X77144619Y-142758438D01*
X77144619Y-142758438D02*
X77239857Y-142710819D01*
X77239857Y-142710819D02*
X77477952Y-142710819D01*
X77477952Y-142710819D02*
X77620809Y-142758438D01*
X78049381Y-143710819D02*
X78049381Y-142710819D01*
X78049381Y-142710819D02*
X78430333Y-142710819D01*
X78430333Y-142710819D02*
X78525571Y-142758438D01*
X78525571Y-142758438D02*
X78573190Y-142806057D01*
X78573190Y-142806057D02*
X78620809Y-142901295D01*
X78620809Y-142901295D02*
X78620809Y-143044152D01*
X78620809Y-143044152D02*
X78573190Y-143139390D01*
X78573190Y-143139390D02*
X78525571Y-143187009D01*
X78525571Y-143187009D02*
X78430333Y-143234628D01*
X78430333Y-143234628D02*
X78049381Y-143234628D01*
X78430523Y-96958819D02*
X77954333Y-96958819D01*
X77954333Y-96958819D02*
X77954333Y-95958819D01*
X79335285Y-96863580D02*
X79287666Y-96911200D01*
X79287666Y-96911200D02*
X79144809Y-96958819D01*
X79144809Y-96958819D02*
X79049571Y-96958819D01*
X79049571Y-96958819D02*
X78906714Y-96911200D01*
X78906714Y-96911200D02*
X78811476Y-96815961D01*
X78811476Y-96815961D02*
X78763857Y-96720723D01*
X78763857Y-96720723D02*
X78716238Y-96530247D01*
X78716238Y-96530247D02*
X78716238Y-96387390D01*
X78716238Y-96387390D02*
X78763857Y-96196914D01*
X78763857Y-96196914D02*
X78811476Y-96101676D01*
X78811476Y-96101676D02*
X78906714Y-96006438D01*
X78906714Y-96006438D02*
X79049571Y-95958819D01*
X79049571Y-95958819D02*
X79144809Y-95958819D01*
X79144809Y-95958819D02*
X79287666Y-96006438D01*
X79287666Y-96006438D02*
X79335285Y-96054057D01*
X79763857Y-96958819D02*
X79763857Y-95958819D01*
X79763857Y-95958819D02*
X80001952Y-95958819D01*
X80001952Y-95958819D02*
X80144809Y-96006438D01*
X80144809Y-96006438D02*
X80240047Y-96101676D01*
X80240047Y-96101676D02*
X80287666Y-96196914D01*
X80287666Y-96196914D02*
X80335285Y-96387390D01*
X80335285Y-96387390D02*
X80335285Y-96530247D01*
X80335285Y-96530247D02*
X80287666Y-96720723D01*
X80287666Y-96720723D02*
X80240047Y-96815961D01*
X80240047Y-96815961D02*
X80144809Y-96911200D01*
X80144809Y-96911200D02*
X80001952Y-96958819D01*
X80001952Y-96958819D02*
X79763857Y-96958819D01*
X73852833Y-111074580D02*
X73805214Y-111122200D01*
X73805214Y-111122200D02*
X73662357Y-111169819D01*
X73662357Y-111169819D02*
X73567119Y-111169819D01*
X73567119Y-111169819D02*
X73424262Y-111122200D01*
X73424262Y-111122200D02*
X73329024Y-111026961D01*
X73329024Y-111026961D02*
X73281405Y-110931723D01*
X73281405Y-110931723D02*
X73233786Y-110741247D01*
X73233786Y-110741247D02*
X73233786Y-110598390D01*
X73233786Y-110598390D02*
X73281405Y-110407914D01*
X73281405Y-110407914D02*
X73329024Y-110312676D01*
X73329024Y-110312676D02*
X73424262Y-110217438D01*
X73424262Y-110217438D02*
X73567119Y-110169819D01*
X73567119Y-110169819D02*
X73662357Y-110169819D01*
X73662357Y-110169819D02*
X73805214Y-110217438D01*
X73805214Y-110217438D02*
X73852833Y-110265057D01*
X74233786Y-110265057D02*
X74281405Y-110217438D01*
X74281405Y-110217438D02*
X74376643Y-110169819D01*
X74376643Y-110169819D02*
X74614738Y-110169819D01*
X74614738Y-110169819D02*
X74709976Y-110217438D01*
X74709976Y-110217438D02*
X74757595Y-110265057D01*
X74757595Y-110265057D02*
X74805214Y-110360295D01*
X74805214Y-110360295D02*
X74805214Y-110455533D01*
X74805214Y-110455533D02*
X74757595Y-110598390D01*
X74757595Y-110598390D02*
X74186167Y-111169819D01*
X74186167Y-111169819D02*
X74805214Y-111169819D01*
D11*
%TO.C,J1*%
X66389000Y-106280000D02*
X62389000Y-106280000D01*
X67419000Y-106570000D02*
X61399000Y-106570000D01*
X61399000Y-106570000D02*
X61399000Y-111870000D01*
X67419000Y-107150000D02*
X66819000Y-107150000D01*
X66819000Y-107150000D02*
X66819000Y-108750000D01*
X62399000Y-107950000D02*
X62929000Y-108200000D01*
X62399000Y-107950000D02*
X62399000Y-110490000D01*
X61399000Y-107950000D02*
X62399000Y-107950000D01*
X62929000Y-108200000D02*
X62929000Y-110240000D01*
X61399000Y-108200000D02*
X62399000Y-108200000D01*
X66819000Y-108750000D02*
X67419000Y-108750000D01*
X67419000Y-109690000D02*
X66819000Y-109690000D01*
X66819000Y-109690000D02*
X66819000Y-111290000D01*
X62929000Y-110240000D02*
X62399000Y-110490000D01*
X61399000Y-110240000D02*
X62399000Y-110240000D01*
X62399000Y-110490000D02*
X61399000Y-110490000D01*
X66819000Y-111290000D02*
X67419000Y-111290000D01*
X67419000Y-111870000D02*
X67419000Y-106570000D01*
X61399000Y-111870000D02*
X67419000Y-111870000D01*
%TO.C,POT1*%
X88678000Y-115716000D02*
X92678000Y-115716000D01*
X87648000Y-115426000D02*
X93668000Y-115426000D01*
X93668000Y-115426000D02*
X93668000Y-107586000D01*
X87648000Y-114846000D02*
X88248000Y-114846000D01*
X88248000Y-114846000D02*
X88248000Y-113246000D01*
X92668000Y-114046000D02*
X92138000Y-113796000D01*
X92668000Y-114046000D02*
X92668000Y-108966000D01*
X93668000Y-114046000D02*
X92668000Y-114046000D01*
X92138000Y-113796000D02*
X92138000Y-109216000D01*
X93668000Y-113796000D02*
X92668000Y-113796000D01*
X88248000Y-113246000D02*
X87648000Y-113246000D01*
X87648000Y-112306000D02*
X88248000Y-112306000D01*
X88248000Y-112306000D02*
X88248000Y-110706000D01*
X88248000Y-110706000D02*
X87648000Y-110706000D01*
X87648000Y-109766000D02*
X88248000Y-109766000D01*
X88248000Y-109766000D02*
X88248000Y-108166000D01*
X92138000Y-109216000D02*
X92668000Y-108966000D01*
X93668000Y-109216000D02*
X92668000Y-109216000D01*
X92668000Y-108966000D02*
X93668000Y-108966000D01*
X88248000Y-108166000D02*
X87648000Y-108166000D01*
X87648000Y-107586000D02*
X87648000Y-115426000D01*
X93668000Y-107586000D02*
X87648000Y-107586000D01*
%TO.C,C3*%
X96366000Y-114673748D02*
X96366000Y-115196252D01*
X94896000Y-114673748D02*
X94896000Y-115196252D01*
%TO.C,U2*%
X55010000Y-105573000D02*
X55010000Y-99563000D01*
X61830000Y-103323000D02*
X61830000Y-99563000D01*
X55010000Y-99563000D02*
X56270000Y-99563000D01*
X61830000Y-99563000D02*
X60570000Y-99563000D01*
%TO.C,U1*%
X90865000Y-124604000D02*
X55185000Y-124604000D01*
X55185000Y-124604000D02*
X55185000Y-129904000D01*
X90865000Y-126254000D02*
X90865000Y-124604000D01*
X90865000Y-129904000D02*
X90865000Y-128254000D01*
X55185000Y-129904000D02*
X90865000Y-129904000D01*
X90865000Y-126254000D02*
G75*
G03*
X90865000Y-128254000I0J-1000000D01*
G01*
%TO.C,Y1*%
X70216000Y-116220000D02*
G75*
G03*
X70216000Y-121270000I0J-2525000D01*
G01*
X76616000Y-121270000D02*
G75*
G03*
X76616000Y-116220000I0J2525000D01*
G01*
X76616000Y-116220000D02*
X70216000Y-116220000D01*
X76616000Y-121270000D02*
X70216000Y-121270000D01*
%TO.C,C1*%
X57269748Y-108104000D02*
X57792252Y-108104000D01*
X57269748Y-109574000D02*
X57792252Y-109574000D01*
%TO.C,R1*%
X90397064Y-119226000D02*
X89942936Y-119226000D01*
X90397064Y-117756000D02*
X89942936Y-117756000D01*
%TO.C,RX_2*%
X59892000Y-132696000D02*
X55892000Y-132696000D01*
X60922000Y-132986000D02*
X54902000Y-132986000D01*
X54902000Y-132986000D02*
X54902000Y-140826000D01*
X60922000Y-133566000D02*
X60322000Y-133566000D01*
X60322000Y-133566000D02*
X60322000Y-135166000D01*
X55902000Y-134366000D02*
X56432000Y-134616000D01*
X55902000Y-134366000D02*
X55902000Y-139446000D01*
X54902000Y-134366000D02*
X55902000Y-134366000D01*
X56432000Y-134616000D02*
X56432000Y-139196000D01*
X54902000Y-134616000D02*
X55902000Y-134616000D01*
X60322000Y-135166000D02*
X60922000Y-135166000D01*
X60922000Y-136106000D02*
X60322000Y-136106000D01*
X60322000Y-136106000D02*
X60322000Y-137706000D01*
X60322000Y-137706000D02*
X60922000Y-137706000D01*
X60922000Y-138646000D02*
X60322000Y-138646000D01*
X60322000Y-138646000D02*
X60322000Y-140246000D01*
X56432000Y-139196000D02*
X55902000Y-139446000D01*
X54902000Y-139196000D02*
X55902000Y-139196000D01*
X55902000Y-139446000D02*
X54902000Y-139446000D01*
X60322000Y-140246000D02*
X60922000Y-140246000D01*
X60922000Y-140826000D02*
X60922000Y-132986000D01*
X54902000Y-140826000D02*
X60922000Y-140826000D01*
%TO.C,RX_3*%
X68020000Y-132696000D02*
X64020000Y-132696000D01*
X69050000Y-132986000D02*
X63030000Y-132986000D01*
X63030000Y-132986000D02*
X63030000Y-140826000D01*
X69050000Y-133566000D02*
X68450000Y-133566000D01*
X68450000Y-133566000D02*
X68450000Y-135166000D01*
X64030000Y-134366000D02*
X64560000Y-134616000D01*
X64030000Y-134366000D02*
X64030000Y-139446000D01*
X63030000Y-134366000D02*
X64030000Y-134366000D01*
X64560000Y-134616000D02*
X64560000Y-139196000D01*
X63030000Y-134616000D02*
X64030000Y-134616000D01*
X68450000Y-135166000D02*
X69050000Y-135166000D01*
X69050000Y-136106000D02*
X68450000Y-136106000D01*
X68450000Y-136106000D02*
X68450000Y-137706000D01*
X68450000Y-137706000D02*
X69050000Y-137706000D01*
X69050000Y-138646000D02*
X68450000Y-138646000D01*
X68450000Y-138646000D02*
X68450000Y-140246000D01*
X64560000Y-139196000D02*
X64030000Y-139446000D01*
X63030000Y-139196000D02*
X64030000Y-139196000D01*
X64030000Y-139446000D02*
X63030000Y-139446000D01*
X68450000Y-140246000D02*
X69050000Y-140246000D01*
X69050000Y-140826000D02*
X69050000Y-132986000D01*
X63030000Y-140826000D02*
X69050000Y-140826000D01*
%TO.C,D1*%
X97139000Y-124767000D02*
X95139000Y-124767000D01*
X97139000Y-124767000D02*
X97139000Y-128777000D01*
X95139000Y-124767000D02*
X95139000Y-128777000D01*
%TO.C,RX_1*%
X61868000Y-119221000D02*
X61868000Y-115221000D01*
X61578000Y-120251000D02*
X61578000Y-114231000D01*
X61578000Y-114231000D02*
X53738000Y-114231000D01*
X60998000Y-120251000D02*
X60998000Y-119651000D01*
X60998000Y-119651000D02*
X59398000Y-119651000D01*
X60198000Y-115231000D02*
X59948000Y-115761000D01*
X60198000Y-115231000D02*
X55118000Y-115231000D01*
X60198000Y-114231000D02*
X60198000Y-115231000D01*
X59948000Y-115761000D02*
X55368000Y-115761000D01*
X59948000Y-114231000D02*
X59948000Y-115231000D01*
X59398000Y-119651000D02*
X59398000Y-120251000D01*
X58458000Y-120251000D02*
X58458000Y-119651000D01*
X58458000Y-119651000D02*
X56858000Y-119651000D01*
X56858000Y-119651000D02*
X56858000Y-120251000D01*
X55918000Y-120251000D02*
X55918000Y-119651000D01*
X55918000Y-119651000D02*
X54318000Y-119651000D01*
X55368000Y-115761000D02*
X55118000Y-115231000D01*
X55368000Y-114231000D02*
X55368000Y-115231000D01*
X55118000Y-115231000D02*
X55118000Y-114231000D01*
X54318000Y-119651000D02*
X54318000Y-120251000D01*
X53738000Y-120251000D02*
X61578000Y-120251000D01*
X53738000Y-114231000D02*
X53738000Y-120251000D01*
%TO.C,J2*%
X74938000Y-143491000D02*
X75938000Y-143491000D01*
X75938000Y-143491000D02*
X75438000Y-142491000D01*
X75438000Y-142491000D02*
X74938000Y-143491000D01*
X70228000Y-142101000D02*
X70228000Y-132981000D01*
X75928000Y-142101000D02*
X75928000Y-140791000D01*
X85728000Y-142101000D02*
X70228000Y-142101000D01*
X71528000Y-140791000D02*
X71528000Y-134291000D01*
X75928000Y-140791000D02*
X71528000Y-140791000D01*
X80028000Y-140791000D02*
X80028000Y-142101000D01*
X80028000Y-140791000D02*
X80028000Y-140791000D01*
X84428000Y-140791000D02*
X80028000Y-140791000D01*
X71528000Y-134291000D02*
X84428000Y-134291000D01*
X84428000Y-134291000D02*
X84428000Y-140791000D01*
X70228000Y-132981000D02*
X85728000Y-132981000D01*
X85728000Y-132981000D02*
X85728000Y-142101000D01*
%TO.C,LCD1*%
X93491000Y-102584000D02*
X93491000Y-98584000D01*
X93201000Y-103614000D02*
X93201000Y-97594000D01*
X93201000Y-97594000D02*
X65041000Y-97594000D01*
X92621000Y-103614000D02*
X92621000Y-103014000D01*
X92621000Y-103014000D02*
X91021000Y-103014000D01*
X91821000Y-98594000D02*
X91571000Y-99124000D01*
X91821000Y-98594000D02*
X86741000Y-98594000D01*
X91821000Y-97594000D02*
X91821000Y-98594000D01*
X91571000Y-99124000D02*
X86741000Y-99124000D01*
X91571000Y-97594000D02*
X91571000Y-98594000D01*
X91021000Y-103014000D02*
X91021000Y-103614000D01*
X90081000Y-103614000D02*
X90081000Y-103014000D01*
X90081000Y-103014000D02*
X88481000Y-103014000D01*
X88481000Y-103014000D02*
X88481000Y-103614000D01*
X87541000Y-103614000D02*
X87541000Y-103014000D01*
X87541000Y-103014000D02*
X85941000Y-103014000D01*
X86741000Y-99124000D02*
X86741000Y-98594000D01*
X86741000Y-98594000D02*
X86741000Y-97594000D01*
X85941000Y-103014000D02*
X85941000Y-103614000D01*
X85001000Y-103614000D02*
X85001000Y-103014000D01*
X85001000Y-103014000D02*
X83401000Y-103014000D01*
X83401000Y-103014000D02*
X83401000Y-103614000D01*
X82461000Y-103614000D02*
X82461000Y-103014000D01*
X82461000Y-103014000D02*
X80861000Y-103014000D01*
X80861000Y-103014000D02*
X80861000Y-103614000D01*
X79921000Y-103614000D02*
X79921000Y-103014000D01*
X79921000Y-103014000D02*
X78321000Y-103014000D01*
X78321000Y-103014000D02*
X78321000Y-103614000D01*
X77381000Y-103614000D02*
X77381000Y-103014000D01*
X77381000Y-103014000D02*
X75781000Y-103014000D01*
X75781000Y-103014000D02*
X75781000Y-103614000D01*
X74841000Y-103614000D02*
X74841000Y-103014000D01*
X74841000Y-103014000D02*
X73241000Y-103014000D01*
X73241000Y-103014000D02*
X73241000Y-103614000D01*
X72301000Y-103614000D02*
X72301000Y-103014000D01*
X72301000Y-103014000D02*
X70701000Y-103014000D01*
X71501000Y-99124000D02*
X71501000Y-98594000D01*
X71501000Y-98594000D02*
X71501000Y-97594000D01*
X70701000Y-103014000D02*
X70701000Y-103614000D01*
X69761000Y-103614000D02*
X69761000Y-103014000D01*
X69761000Y-103014000D02*
X68161000Y-103014000D01*
X68161000Y-103014000D02*
X68161000Y-103614000D01*
X67221000Y-103614000D02*
X67221000Y-103014000D01*
X67221000Y-103014000D02*
X65621000Y-103014000D01*
X66671000Y-99124000D02*
X71501000Y-99124000D01*
X66671000Y-97594000D02*
X66671000Y-98594000D01*
X66421000Y-98594000D02*
X71501000Y-98594000D01*
X66421000Y-98594000D02*
X66671000Y-99124000D01*
X66421000Y-97594000D02*
X66421000Y-98594000D01*
X65621000Y-103014000D02*
X65621000Y-103614000D01*
X65041000Y-103614000D02*
X93201000Y-103614000D01*
X65041000Y-97594000D02*
X65041000Y-103614000D01*
%TO.C,C2*%
X73758248Y-111660000D02*
X74280752Y-111660000D01*
X73758248Y-113130000D02*
X74280752Y-113130000D01*
%TD*%
M02*
