M48
; DRILL file {KiCad 7.0.7} date Tue Oct 31 12:47:39 2023
; FORMAT={-:-/ absolute / inch / decimal}
; #@! TF.CreationDate,2023-10-31T12:47:39-05:00
; #@! TF.GenerationSoftware,Kicad,Pcbnew,7.0.7
; #@! TF.FileFunction,Plated,1,2,PTH
FMAT,2
INCH
; #@! TA.AperFunction,Plated,PTH,ViaDrill
T1C0.0157
; #@! TA.AperFunction,Plated,PTH,ComponentDrill
T2C0.0315
; #@! TA.AperFunction,Plated,PTH,ComponentDrill
T3C0.0394
; #@! TA.AperFunction,Plated,PTH,ComponentDrill
T4C0.0469
%
G90
G05
T1
X2.19Y-5.255
X2.325Y-4.695
X2.605Y-5.05
X2.675Y-5.415
X2.6964Y-5.2536
X2.805Y-5.255
X2.925Y-4.975
X2.985Y-4.615
X3.6Y-4.595
X3.65Y-4.665
X3.785Y-4.835
T2
X2.225Y-4.86
X2.225Y-5.16
X2.325Y-4.86
X2.325Y-5.16
X2.425Y-4.86
X2.425Y-5.16
X2.525Y-4.86
X2.525Y-5.16
X2.625Y-4.86
X2.625Y-5.16
X2.725Y-4.86
X2.725Y-5.16
X2.7943Y-4.675
X2.825Y-4.86
X2.825Y-5.16
X2.925Y-4.86
X2.925Y-5.16
X2.9865Y-4.675
X3.025Y-4.86
X3.025Y-5.16
X3.125Y-4.86
X3.125Y-5.16
X3.225Y-4.86
X3.225Y-5.16
X3.325Y-4.86
X3.325Y-5.16
X3.425Y-4.86
X3.425Y-5.16
X3.525Y-4.86
X3.525Y-5.16
T3
X2.97Y-5.365
X2.97Y-5.465
X3.07Y-5.365
X3.07Y-5.465
X3.17Y-5.365
X3.17Y-5.465
T4
X2.17Y-4.615
X2.27Y-4.615
X2.2792Y-5.29
X2.2792Y-5.39
X2.2792Y-5.49
X2.37Y-4.615
X2.535Y-4.25
X2.535Y-4.35
X2.5992Y-5.29
X2.5992Y-5.39
X2.5992Y-5.49
X2.615Y-3.96
X2.715Y-3.96
X2.815Y-3.96
X2.915Y-3.96
X3.015Y-3.96
X3.115Y-3.96
X3.215Y-3.96
X3.315Y-3.96
X3.415Y-3.96
X3.515Y-3.96
X3.57Y-4.29
X3.57Y-4.39
X3.57Y-4.49
X3.615Y-3.96
T0
M30
